<mxfile host="app.diagrams.net" modified="2023-12-11T16:12:18.827Z" agent="Mozilla/5.0 (Windows NT 10.0; Win64; x64) AppleWebKit/537.36 (KHTML, like Gecko) Chrome/116.0.0.0 Safari/537.36" etag="8P6fRXJpe8eVWZB1qGk6" version="22.1.7" type="device">
  <diagram name="Strona-1" id="mOGhw_kaDy-jFeSj4dUU">
    <mxGraphModel dx="1016" dy="521" grid="1" gridSize="10" guides="1" tooltips="1" connect="1" arrows="1" fold="1" page="1" pageScale="1" pageWidth="827" pageHeight="1169" background="#ffffff" math="0" shadow="0">
      <root>
        <mxCell id="0" />
        <mxCell id="1" parent="0" />
        <mxCell id="FnCTYT4J3TpVENLpEvIC-10" value="creates" style="edgeStyle=orthogonalEdgeStyle;rounded=0;orthogonalLoop=1;jettySize=auto;html=1;entryX=0.5;entryY=0;entryDx=0;entryDy=0;" parent="1" source="FnCTYT4J3TpVENLpEvIC-2" target="FnCTYT4J3TpVENLpEvIC-5" edge="1">
          <mxGeometry x="0.7797" relative="1" as="geometry">
            <mxPoint x="160" y="340" as="targetPoint" />
            <mxPoint as="offset" />
            <Array as="points">
              <mxPoint x="414" y="260" />
              <mxPoint x="100" y="260" />
            </Array>
          </mxGeometry>
        </mxCell>
        <mxCell id="FnCTYT4J3TpVENLpEvIC-11" value="creates" style="edgeStyle=orthogonalEdgeStyle;rounded=0;orthogonalLoop=1;jettySize=auto;html=1;entryX=0.5;entryY=0;entryDx=0;entryDy=0;" parent="1" source="FnCTYT4J3TpVENLpEvIC-2" target="FnCTYT4J3TpVENLpEvIC-4" edge="1">
          <mxGeometry y="-10" relative="1" as="geometry">
            <mxPoint as="offset" />
            <Array as="points">
              <mxPoint x="414" y="310" />
              <mxPoint x="294" y="310" />
            </Array>
          </mxGeometry>
        </mxCell>
        <mxCell id="FnCTYT4J3TpVENLpEvIC-12" value="creates" style="edgeStyle=orthogonalEdgeStyle;rounded=0;orthogonalLoop=1;jettySize=auto;html=1;exitX=0.5;exitY=1;exitDx=0;exitDy=0;entryX=0.5;entryY=0;entryDx=0;entryDy=0;" parent="1" source="FnCTYT4J3TpVENLpEvIC-2" target="FnCTYT4J3TpVENLpEvIC-3" edge="1">
          <mxGeometry y="10" relative="1" as="geometry">
            <mxPoint x="530" y="350" as="targetPoint" />
            <mxPoint as="offset" />
            <Array as="points">
              <mxPoint x="414" y="310" />
              <mxPoint x="534" y="310" />
            </Array>
          </mxGeometry>
        </mxCell>
        <mxCell id="FnCTYT4J3TpVENLpEvIC-13" value="creates" style="edgeStyle=orthogonalEdgeStyle;rounded=0;orthogonalLoop=1;jettySize=auto;html=1;entryX=0.5;entryY=0;entryDx=0;entryDy=0;" parent="1" source="FnCTYT4J3TpVENLpEvIC-2" target="FnCTYT4J3TpVENLpEvIC-6" edge="1">
          <mxGeometry x="0.7758" relative="1" as="geometry">
            <mxPoint as="offset" />
            <Array as="points">
              <mxPoint x="414" y="260" />
              <mxPoint x="720" y="260" />
            </Array>
          </mxGeometry>
        </mxCell>
        <mxCell id="FnCTYT4J3TpVENLpEvIC-2" value="Menu" style="rounded=0;whiteSpace=wrap;html=1;" parent="1" vertex="1">
          <mxGeometry x="354" y="160" width="120" height="60" as="geometry" />
        </mxCell>
        <mxCell id="FnCTYT4J3TpVENLpEvIC-3" value="TopScore" style="rounded=0;whiteSpace=wrap;html=1;" parent="1" vertex="1">
          <mxGeometry x="474" y="360" width="120" height="60" as="geometry" />
        </mxCell>
        <mxCell id="FnCTYT4J3TpVENLpEvIC-4" value="Difficulty" style="rounded=0;whiteSpace=wrap;html=1;" parent="1" vertex="1">
          <mxGeometry x="234" y="360" width="120" height="60" as="geometry" />
        </mxCell>
        <mxCell id="FnCTYT4J3TpVENLpEvIC-29" value="creates" style="edgeStyle=orthogonalEdgeStyle;rounded=0;orthogonalLoop=1;jettySize=auto;html=1;exitX=0.5;exitY=1;exitDx=0;exitDy=0;entryX=0.5;entryY=0;entryDx=0;entryDy=0;" parent="1" source="FnCTYT4J3TpVENLpEvIC-5" target="FnCTYT4J3TpVENLpEvIC-8" edge="1">
          <mxGeometry x="0.8286" relative="1" as="geometry">
            <mxPoint as="offset" />
            <Array as="points">
              <mxPoint x="100" y="560" />
              <mxPoint x="250" y="560" />
            </Array>
          </mxGeometry>
        </mxCell>
        <mxCell id="FnCTYT4J3TpVENLpEvIC-30" value="creates" style="edgeStyle=orthogonalEdgeStyle;rounded=0;orthogonalLoop=1;jettySize=auto;html=1;exitX=0.5;exitY=1;exitDx=0;exitDy=0;entryX=0.5;entryY=0;entryDx=0;entryDy=0;" parent="1" edge="1">
          <mxGeometry x="0.8402" relative="1" as="geometry">
            <Array as="points">
              <mxPoint x="100" y="560" />
              <mxPoint x="390" y="560" />
            </Array>
            <mxPoint as="offset" />
            <mxPoint x="99.97" y="419.94" as="sourcePoint" />
            <mxPoint x="389.97" y="629.94" as="targetPoint" />
          </mxGeometry>
        </mxCell>
        <mxCell id="XU1xXRhFXpAry16F3Snm-16" value="creates" style="edgeStyle=orthogonalEdgeStyle;rounded=0;orthogonalLoop=1;jettySize=auto;html=1;entryX=0.5;entryY=0;entryDx=0;entryDy=0;" parent="1" source="FnCTYT4J3TpVENLpEvIC-5" target="XU1xXRhFXpAry16F3Snm-8" edge="1">
          <mxGeometry x="0.8868" relative="1" as="geometry">
            <Array as="points">
              <mxPoint x="100" y="740" />
              <mxPoint x="250" y="740" />
            </Array>
            <mxPoint as="offset" />
          </mxGeometry>
        </mxCell>
        <mxCell id="XU1xXRhFXpAry16F3Snm-17" value="creates" style="edgeStyle=orthogonalEdgeStyle;rounded=0;orthogonalLoop=1;jettySize=auto;html=1;exitX=0.5;exitY=1;exitDx=0;exitDy=0;entryX=0.5;entryY=0;entryDx=0;entryDy=0;" parent="1" source="FnCTYT4J3TpVENLpEvIC-5" target="XU1xXRhFXpAry16F3Snm-11" edge="1">
          <mxGeometry x="0.9368" relative="1" as="geometry">
            <Array as="points">
              <mxPoint x="100" y="740" />
              <mxPoint x="670" y="740" />
            </Array>
            <mxPoint as="offset" />
          </mxGeometry>
        </mxCell>
        <mxCell id="XU1xXRhFXpAry16F3Snm-18" value="creates" style="edgeStyle=orthogonalEdgeStyle;rounded=0;orthogonalLoop=1;jettySize=auto;html=1;exitX=0.5;exitY=1;exitDx=0;exitDy=0;entryX=0.5;entryY=0;entryDx=0;entryDy=0;" parent="1" source="FnCTYT4J3TpVENLpEvIC-5" target="XU1xXRhFXpAry16F3Snm-9" edge="1">
          <mxGeometry x="0.9104" relative="1" as="geometry">
            <Array as="points">
              <mxPoint x="100" y="740" />
              <mxPoint x="390" y="740" />
            </Array>
            <mxPoint as="offset" />
          </mxGeometry>
        </mxCell>
        <mxCell id="XU1xXRhFXpAry16F3Snm-19" value="creates" style="edgeStyle=orthogonalEdgeStyle;rounded=0;orthogonalLoop=1;jettySize=auto;html=1;exitX=0.5;exitY=1;exitDx=0;exitDy=0;" parent="1" source="FnCTYT4J3TpVENLpEvIC-5" target="XU1xXRhFXpAry16F3Snm-10" edge="1">
          <mxGeometry x="0.9259" relative="1" as="geometry">
            <Array as="points">
              <mxPoint x="100" y="740" />
              <mxPoint x="530" y="740" />
            </Array>
            <mxPoint as="offset" />
          </mxGeometry>
        </mxCell>
        <mxCell id="XU1xXRhFXpAry16F3Snm-20" value="creates" style="edgeStyle=orthogonalEdgeStyle;rounded=0;orthogonalLoop=1;jettySize=auto;html=1;exitX=0.5;exitY=1;exitDx=0;exitDy=0;" parent="1" source="FnCTYT4J3TpVENLpEvIC-5" target="XU1xXRhFXpAry16F3Snm-12" edge="1">
          <mxGeometry x="0.9155" relative="1" as="geometry">
            <Array as="points">
              <mxPoint x="100" y="920" />
            </Array>
            <mxPoint as="offset" />
          </mxGeometry>
        </mxCell>
        <mxCell id="XU1xXRhFXpAry16F3Snm-21" value="creates" style="edgeStyle=orthogonalEdgeStyle;rounded=0;orthogonalLoop=1;jettySize=auto;html=1;exitX=0.5;exitY=1;exitDx=0;exitDy=0;entryX=0.5;entryY=0;entryDx=0;entryDy=0;" parent="1" source="FnCTYT4J3TpVENLpEvIC-5" target="XU1xXRhFXpAry16F3Snm-13" edge="1">
          <mxGeometry x="0.9294" relative="1" as="geometry">
            <Array as="points">
              <mxPoint x="100" y="920" />
              <mxPoint x="390" y="920" />
            </Array>
            <mxPoint as="offset" />
          </mxGeometry>
        </mxCell>
        <mxCell id="XU1xXRhFXpAry16F3Snm-22" value="creates" style="edgeStyle=orthogonalEdgeStyle;rounded=0;orthogonalLoop=1;jettySize=auto;html=1;exitX=0.5;exitY=1;exitDx=0;exitDy=0;entryX=0.5;entryY=0;entryDx=0;entryDy=0;" parent="1" source="FnCTYT4J3TpVENLpEvIC-5" target="XU1xXRhFXpAry16F3Snm-14" edge="1">
          <mxGeometry x="0.9394" relative="1" as="geometry">
            <Array as="points">
              <mxPoint x="100" y="920" />
              <mxPoint x="530" y="920" />
            </Array>
            <mxPoint as="offset" />
          </mxGeometry>
        </mxCell>
        <mxCell id="XU1xXRhFXpAry16F3Snm-23" value="creates" style="edgeStyle=orthogonalEdgeStyle;rounded=0;orthogonalLoop=1;jettySize=auto;html=1;exitX=0.5;exitY=1;exitDx=0;exitDy=0;entryX=0.5;entryY=0;entryDx=0;entryDy=0;" parent="1" source="FnCTYT4J3TpVENLpEvIC-5" target="XU1xXRhFXpAry16F3Snm-15" edge="1">
          <mxGeometry x="0.9469" relative="1" as="geometry">
            <Array as="points">
              <mxPoint x="100" y="920" />
              <mxPoint x="670" y="920" />
            </Array>
            <mxPoint as="offset" />
          </mxGeometry>
        </mxCell>
        <mxCell id="FnCTYT4J3TpVENLpEvIC-5" value="Game" style="rounded=0;whiteSpace=wrap;html=1;" parent="1" vertex="1">
          <mxGeometry x="40" y="360" width="120" height="60" as="geometry" />
        </mxCell>
        <mxCell id="FnCTYT4J3TpVENLpEvIC-6" value="MenuWindow&lt;br&gt;(Credits)" style="rounded=0;whiteSpace=wrap;html=1;" parent="1" vertex="1">
          <mxGeometry x="660" y="360" width="120" height="60" as="geometry" />
        </mxCell>
        <mxCell id="FnCTYT4J3TpVENLpEvIC-7" value="TreesBackground" style="rounded=0;whiteSpace=wrap;html=1;" parent="1" vertex="1">
          <mxGeometry x="330" y="620" width="120" height="60" as="geometry" />
        </mxCell>
        <mxCell id="FnCTYT4J3TpVENLpEvIC-8" value="RoadBackground" style="rounded=0;whiteSpace=wrap;html=1;" parent="1" vertex="1">
          <mxGeometry x="190" y="620" width="120" height="60" as="geometry" />
        </mxCell>
        <UserObject label="Created with: app.diagrams.net" link="app.diagrams.net" id="FnCTYT4J3TpVENLpEvIC-16">
          <mxCell style="text;html=1;strokeColor=none;fillColor=none;align=center;verticalAlign=middle;whiteSpace=wrap;rounded=0;fontStyle=1" parent="1" vertex="1">
            <mxGeometry x="637" width="190" height="30" as="geometry" />
          </mxCell>
        </UserObject>
        <mxCell id="FnCTYT4J3TpVENLpEvIC-33" value="Deer Killer - program diagram" style="text;html=1;strokeColor=none;fillColor=none;align=center;verticalAlign=middle;whiteSpace=wrap;rounded=0;fontSize=32;fontStyle=1" parent="1" vertex="1">
          <mxGeometry x="124" y="70" width="580" height="50" as="geometry" />
        </mxCell>
        <mxCell id="FnCTYT4J3TpVENLpEvIC-39" value="&amp;nbsp;" style="text;html=1;strokeColor=none;fillColor=none;align=center;verticalAlign=middle;whiteSpace=wrap;rounded=0;" parent="1" vertex="1">
          <mxGeometry width="60" height="30" as="geometry" />
        </mxCell>
        <mxCell id="FnCTYT4J3TpVENLpEvIC-40" value="&amp;nbsp;" style="text;html=1;strokeColor=none;fillColor=none;align=center;verticalAlign=middle;whiteSpace=wrap;rounded=0;" parent="1" vertex="1">
          <mxGeometry y="1080" width="60" height="30" as="geometry" />
        </mxCell>
        <mxCell id="XU1xXRhFXpAry16F3Snm-2" style="edgeStyle=orthogonalEdgeStyle;rounded=0;orthogonalLoop=1;jettySize=auto;html=1;entryX=0.5;entryY=1;entryDx=0;entryDy=0;dashed=1;" parent="1" source="XU1xXRhFXpAry16F3Snm-1" target="FnCTYT4J3TpVENLpEvIC-4" edge="1">
          <mxGeometry relative="1" as="geometry">
            <Array as="points">
              <mxPoint x="294" y="480" />
            </Array>
          </mxGeometry>
        </mxCell>
        <mxCell id="XU1xXRhFXpAry16F3Snm-5" value="extends" style="edgeLabel;html=1;align=center;verticalAlign=middle;resizable=0;points=[];" parent="XU1xXRhFXpAry16F3Snm-2" vertex="1" connectable="0">
          <mxGeometry x="0.2667" y="-2" relative="1" as="geometry">
            <mxPoint x="26" y="26" as="offset" />
          </mxGeometry>
        </mxCell>
        <mxCell id="XU1xXRhFXpAry16F3Snm-4" value="" style="edgeStyle=orthogonalEdgeStyle;rounded=0;orthogonalLoop=1;jettySize=auto;html=1;entryX=0.5;entryY=1;entryDx=0;entryDy=0;dashed=1;" parent="1" source="XU1xXRhFXpAry16F3Snm-1" target="FnCTYT4J3TpVENLpEvIC-3" edge="1">
          <mxGeometry x="0.0632" y="-5" relative="1" as="geometry">
            <Array as="points">
              <mxPoint x="534" y="480" />
            </Array>
            <mxPoint as="offset" />
          </mxGeometry>
        </mxCell>
        <mxCell id="XU1xXRhFXpAry16F3Snm-7" value="extends" style="edgeLabel;html=1;align=center;verticalAlign=middle;resizable=0;points=[];" parent="XU1xXRhFXpAry16F3Snm-4" vertex="1" connectable="0">
          <mxGeometry x="-0.267" y="-2" relative="1" as="geometry">
            <mxPoint x="-14" y="8" as="offset" />
          </mxGeometry>
        </mxCell>
        <mxCell id="XU1xXRhFXpAry16F3Snm-1" value="MenuWindow" style="rounded=0;whiteSpace=wrap;html=1;" parent="1" vertex="1">
          <mxGeometry x="354" y="450" width="120" height="60" as="geometry" />
        </mxCell>
        <mxCell id="XU1xXRhFXpAry16F3Snm-8" value="HealthBar" style="rounded=0;whiteSpace=wrap;html=1;" parent="1" vertex="1">
          <mxGeometry x="190" y="800" width="120" height="60" as="geometry" />
        </mxCell>
        <mxCell id="XU1xXRhFXpAry16F3Snm-9" value="EnergyBar" style="rounded=0;whiteSpace=wrap;html=1;" parent="1" vertex="1">
          <mxGeometry x="330" y="800" width="120" height="60" as="geometry" />
        </mxCell>
        <mxCell id="XU1xXRhFXpAry16F3Snm-10" value="PointsCounter" style="rounded=0;whiteSpace=wrap;html=1;" parent="1" vertex="1">
          <mxGeometry x="470" y="800" width="120" height="60" as="geometry" />
        </mxCell>
        <mxCell id="XU1xXRhFXpAry16F3Snm-24" value="creates" style="edgeStyle=orthogonalEdgeStyle;rounded=0;orthogonalLoop=1;jettySize=auto;html=1;exitX=0.5;exitY=1;exitDx=0;exitDy=0;entryX=0.5;entryY=1;entryDx=0;entryDy=0;" parent="1" source="XU1xXRhFXpAry16F3Snm-11" target="XU1xXRhFXpAry16F3Snm-10" edge="1">
          <mxGeometry x="0.0003" relative="1" as="geometry">
            <Array as="points">
              <mxPoint x="670" y="890" />
              <mxPoint x="530" y="890" />
            </Array>
            <mxPoint as="offset" />
          </mxGeometry>
        </mxCell>
        <mxCell id="XU1xXRhFXpAry16F3Snm-25" value="uses" style="edgeStyle=orthogonalEdgeStyle;rounded=0;orthogonalLoop=1;jettySize=auto;html=1;exitX=1;exitY=0.5;exitDx=0;exitDy=0;entryX=1;entryY=0.5;entryDx=0;entryDy=0;dashed=1;dashPattern=1 2;spacingTop=0;spacing=2;spacingLeft=0;spacingBottom=0;" parent="1" source="XU1xXRhFXpAry16F3Snm-11" target="FnCTYT4J3TpVENLpEvIC-2" edge="1">
          <mxGeometry x="-0.9228" relative="1" as="geometry">
            <Array as="points">
              <mxPoint x="800" y="830" />
              <mxPoint x="800" y="190" />
            </Array>
            <mxPoint as="offset" />
          </mxGeometry>
        </mxCell>
        <mxCell id="XU1xXRhFXpAry16F3Snm-11" value="GameOver" style="rounded=0;whiteSpace=wrap;html=1;" parent="1" vertex="1">
          <mxGeometry x="610" y="800" width="120" height="60" as="geometry" />
        </mxCell>
        <mxCell id="XU1xXRhFXpAry16F3Snm-12" value="Player" style="rounded=0;whiteSpace=wrap;html=1;" parent="1" vertex="1">
          <mxGeometry x="190" y="980" width="120" height="60" as="geometry" />
        </mxCell>
        <mxCell id="XU1xXRhFXpAry16F3Snm-13" value="Enemy" style="rounded=0;whiteSpace=wrap;html=1;" parent="1" vertex="1">
          <mxGeometry x="330" y="980" width="120" height="60" as="geometry" />
        </mxCell>
        <mxCell id="XU1xXRhFXpAry16F3Snm-14" value="Deer" style="rounded=0;whiteSpace=wrap;html=1;" parent="1" vertex="1">
          <mxGeometry x="470" y="980" width="120" height="60" as="geometry" />
        </mxCell>
        <mxCell id="XU1xXRhFXpAry16F3Snm-15" value="HappyDeer" style="rounded=0;whiteSpace=wrap;html=1;" parent="1" vertex="1">
          <mxGeometry x="610" y="980" width="120" height="60" as="geometry" />
        </mxCell>
      </root>
    </mxGraphModel>
  </diagram>
</mxfile>
